<svg width="16" height="16" viewBox="0 0 16 16" fill="none" xmlns="http://www.w3.org/2000/svg">
<g clip-path="url(#clip0_4_27)">
<path d="M4.66663 12C3.92996 12 3.33996 12.5967 3.33996 13.3333C3.33996 14.07 3.92996 14.6667 4.66663 14.6667C5.40329 14.6667 5.99996 14.07 5.99996 13.3333C5.99996 12.5967 5.40329 12 4.66663 12ZM0.666626 1.33333V2.66666H1.99996L4.39663 7.72333L3.49663 9.35666C3.39329 9.54999 3.33329 9.76666 3.33329 9.99999C3.33329 10.7367 3.92996 11.3333 4.66663 11.3333H12.6666V9.99999H4.94996C4.85663 9.99999 4.78329 9.92666 4.78329 9.83333C4.78329 9.80333 4.78996 9.77666 4.80329 9.75333L5.39996 8.66666H10.3666C10.8666 8.66666 11.3033 8.38999 11.5333 7.97999L13.9166 3.65333C13.97 3.55999 14 3.44999 14 3.33333C14 2.96333 13.7 2.66666 13.3333 2.66666H3.47663L2.84329 1.33333H0.666626ZM11.3333 12C10.5966 12 10.0066 12.5967 10.0066 13.3333C10.0066 14.07 10.5966 14.6667 11.3333 14.6667C12.07 14.6667 12.6666 14.07 12.6666 13.3333C12.6666 12.5967 12.07 12 11.3333 12Z" fill="white"/>
</g>
<defs>
<clipPath id="clip0_4_27">
<rect width="16" height="16" fill="white"/>
</clipPath>
</defs>
</svg>
