<svg width="30" height="41" viewBox="0 0 30 41" fill="none" xmlns="http://www.w3.org/2000/svg">
<mask id="path-1-inside-1_3_15" fill="white">
<path fill-rule="evenodd" clip-rule="evenodd" d="M0.0604576 29.5214C0.161026 29.7671 0.41276 29.9547 0.700232 29.9981C0.904184 30.029 1.46998 29.8531 3.19286 29.223C4.41868 28.7747 5.9143 28.2603 6.51646 28.0799C7.11862 27.8996 7.65658 27.7372 7.71186 27.7192C7.77576 27.6984 7.96704 28.007 8.2359 28.5648C8.75602 29.6439 9.47213 30.9308 9.94392 31.6341L10.2982 32.1621L9.85406 32.492C8.30988 33.6393 7.25031 35.4671 6.8331 37.7034C6.76585 38.0636 6.70407 38.6046 6.6957 38.9057C6.66536 39.9987 7.07178 40.1742 9.13624 39.9598C11.9027 39.6725 14.0065 38.8779 15.4595 37.5714C15.8091 37.2571 15.8534 37.2377 15.9505 37.3562C16.1586 37.6103 17.2449 38.3673 17.8625 38.6886C19.1073 39.3362 20.4596 39.7179 22.2347 39.9225C24.0944 40.1369 24.6381 40.0655 24.8927 39.573C25.0399 39.2884 25.0408 39.0273 24.8976 38.0846C24.6437 36.4128 24.0055 34.8648 23.1081 33.7444C22.6737 33.2019 22.4159 32.9615 21.546 32.2877C21.382 32.1608 21.3825 32.1591 21.7809 31.5448C22.5654 30.3347 23.5113 28.5172 24.2308 26.8369C24.5513 26.0887 24.6717 25.8816 24.7688 25.9121C24.8377 25.9337 25.1071 26.0406 25.3676 26.1497C26.0242 26.4248 27.0449 26.5951 28.3364 26.645L29.4327 26.6874L29.6828 26.477C30.0128 26.1993 30.052 25.9403 29.9408 24.774C29.6507 21.7335 28.6761 19.2301 27.1444 17.5916L26.6729 17.0872L26.6197 16.3443C26.2544 11.2438 24.3856 7.08053 20.9145 3.63454C20.3936 3.11731 19.7209 2.49841 19.4199 2.25919C18.0754 1.19094 16.1976 0 15.8577 0C15.465 0 13.7097 1.09624 12.3508 2.19014C8.51586 5.27726 6.08619 9.43786 5.29205 14.2775L5.12172 15.3156L4.56038 15.8972C2.50624 18.026 0.954468 22.2728 0.139364 27.9965C-0.0262687 29.1595 -0.0331507 29.2926 0.0604576 29.5214ZM2.06424 26.5174C2.64075 23.2433 3.64416 20.1629 4.70029 18.4252L4.98025 17.9645L5.02123 18.2297C5.04383 18.3755 5.08387 18.7236 5.1103 19.0032C5.23433 20.3141 5.85065 22.6743 6.5895 24.6679C6.87189 25.4298 7.10298 26.0805 7.10298 26.1139C7.10298 26.1473 6.86548 26.2382 6.57511 26.3158C6.00963 26.4672 3.8758 27.1794 2.62589 27.6342C1.98479 27.8674 1.86342 27.8914 1.86342 27.7848C1.86342 27.715 1.95382 27.1447 2.06424 26.5174ZM6.71056 16.4207C6.87963 13.8116 7.4545 11.6275 8.54105 9.46609C10.0214 6.52099 12.3953 3.94297 15.2853 2.14173L15.8528 1.78794L16.7371 2.37579C17.9641 3.1916 18.8062 3.87923 19.8109 4.88593C21.2848 6.36279 22.2734 7.74259 23.174 9.5798C24.4105 12.1021 24.969 14.5014 24.9671 17.2827C24.9661 18.8143 24.8761 19.5308 24.4909 21.0756C23.6186 24.5741 21.2709 29.7253 19.6663 31.6618C19.2969 32.1076 19.1858 32.4213 19.2955 32.7082C19.383 32.9367 19.5512 33.075 20.1237 33.3891C21.1034 33.9265 21.8434 34.6778 22.3984 35.6986C22.747 36.3399 23.0872 37.2912 23.2064 37.9587L23.2748 38.341L22.6029 38.2894C20.054 38.0934 17.8442 37.1201 16.7303 35.7027C16.5061 35.4174 16.2392 35.146 16.1372 35.0995C15.8207 34.9553 15.4195 35.085 15.178 35.4096C14.2897 36.6034 12.909 37.4782 11.2086 37.9245C10.4851 38.1145 9.20381 38.3192 8.7389 38.3192H8.41866L8.47348 37.9868C8.56998 37.4021 8.90844 36.4211 9.22461 35.8098C9.80128 34.6949 10.6006 33.889 11.7024 33.3114C12.5609 32.8613 12.6258 32.414 11.953 31.5824C10.6469 29.9679 8.7012 25.9631 7.66533 22.7569C7.12206 21.0753 6.82067 19.7135 6.71909 18.4817C6.68421 18.0588 6.65144 17.6777 6.64636 17.6347C6.64119 17.5916 6.67013 17.0454 6.71056 16.4207ZM8.50969 18.0067C8.70738 18.258 9.8274 18.836 10.7394 19.1573C12.3898 19.7387 13.9076 19.9818 15.8617 19.9777C17.745 19.9737 18.925 19.7962 20.5929 19.2661C21.3594 19.0225 21.6486 18.7596 21.6486 18.3064C21.6486 18.0775 21.5912 17.9417 21.4147 17.7527C21.2023 17.5252 21.1463 17.5052 20.8086 17.5351C20.6039 17.5532 20.1198 17.6639 19.7327 17.781C18.5253 18.1464 17.3014 18.3178 15.9008 18.3177C13.6732 18.3174 11.7974 17.9159 10.1394 17.0847C9.27662 16.6521 8.92213 16.6246 8.58281 16.9639C8.30136 17.2454 8.26937 17.7012 8.50969 18.0067ZM8.53917 14.6753C8.78441 14.9667 9.54743 15.3731 10.5439 15.743C14.2755 17.1282 18.889 16.9344 22.2352 15.2519C22.9741 14.8804 23.1156 14.7781 23.2385 14.5266C23.3587 14.2806 23.3671 14.1901 23.2914 13.9609C23.1763 13.612 22.8716 13.3726 22.5427 13.3726C22.3941 13.3726 21.9926 13.5189 21.5953 13.7178C19.6181 14.7074 17.1343 15.1525 14.7352 14.9472C12.9397 14.7936 11.6242 14.4502 10.1365 13.7471C9.43568 13.4158 9.25128 13.3589 9.00721 13.3985C8.61643 13.4618 8.42335 13.6739 8.37635 14.0908C8.34374 14.3801 8.36994 14.4741 8.53917 14.6753ZM11.7119 10.3743C12.0299 11.6716 13.6696 12.0926 14.5611 11.1057C15.5772 9.98106 14.6917 8.25724 13.163 8.38401C12.1997 8.46393 11.4843 9.44529 11.7119 10.3743ZM25.948 21.9983C26.116 21.3874 26.3125 20.5661 26.3847 20.1729L26.516 19.4583L26.6671 19.6804C27.1198 20.3459 27.615 21.5434 27.9017 22.6666C28.0585 23.2806 28.3306 24.9382 28.2824 24.9858C28.2316 25.0361 26.8385 24.8567 26.3799 24.7408C26.1218 24.6755 25.7633 24.5366 25.5832 24.432L25.2556 24.2418L25.4491 23.6753C25.5556 23.3638 25.7801 22.6091 25.948 21.9983Z"/>
</mask>
<path fill-rule="evenodd" clip-rule="evenodd" d="M0.0604576 29.5214C0.161026 29.7671 0.41276 29.9547 0.700232 29.9981C0.904184 30.029 1.46998 29.8531 3.19286 29.223C4.41868 28.7747 5.9143 28.2603 6.51646 28.0799C7.11862 27.8996 7.65658 27.7372 7.71186 27.7192C7.77576 27.6984 7.96704 28.007 8.2359 28.5648C8.75602 29.6439 9.47213 30.9308 9.94392 31.6341L10.2982 32.1621L9.85406 32.492C8.30988 33.6393 7.25031 35.4671 6.8331 37.7034C6.76585 38.0636 6.70407 38.6046 6.6957 38.9057C6.66536 39.9987 7.07178 40.1742 9.13624 39.9598C11.9027 39.6725 14.0065 38.8779 15.4595 37.5714C15.8091 37.2571 15.8534 37.2377 15.9505 37.3562C16.1586 37.6103 17.2449 38.3673 17.8625 38.6886C19.1073 39.3362 20.4596 39.7179 22.2347 39.9225C24.0944 40.1369 24.6381 40.0655 24.8927 39.573C25.0399 39.2884 25.0408 39.0273 24.8976 38.0846C24.6437 36.4128 24.0055 34.8648 23.1081 33.7444C22.6737 33.2019 22.4159 32.9615 21.546 32.2877C21.382 32.1608 21.3825 32.1591 21.7809 31.5448C22.5654 30.3347 23.5113 28.5172 24.2308 26.8369C24.5513 26.0887 24.6717 25.8816 24.7688 25.9121C24.8377 25.9337 25.1071 26.0406 25.3676 26.1497C26.0242 26.4248 27.0449 26.5951 28.3364 26.645L29.4327 26.6874L29.6828 26.477C30.0128 26.1993 30.052 25.9403 29.9408 24.774C29.6507 21.7335 28.6761 19.2301 27.1444 17.5916L26.6729 17.0872L26.6197 16.3443C26.2544 11.2438 24.3856 7.08053 20.9145 3.63454C20.3936 3.11731 19.7209 2.49841 19.4199 2.25919C18.0754 1.19094 16.1976 0 15.8577 0C15.465 0 13.7097 1.09624 12.3508 2.19014C8.51586 5.27726 6.08619 9.43786 5.29205 14.2775L5.12172 15.3156L4.56038 15.8972C2.50624 18.026 0.954468 22.2728 0.139364 27.9965C-0.0262687 29.1595 -0.0331507 29.2926 0.0604576 29.5214ZM2.06424 26.5174C2.64075 23.2433 3.64416 20.1629 4.70029 18.4252L4.98025 17.9645L5.02123 18.2297C5.04383 18.3755 5.08387 18.7236 5.1103 19.0032C5.23433 20.3141 5.85065 22.6743 6.5895 24.6679C6.87189 25.4298 7.10298 26.0805 7.10298 26.1139C7.10298 26.1473 6.86548 26.2382 6.57511 26.3158C6.00963 26.4672 3.8758 27.1794 2.62589 27.6342C1.98479 27.8674 1.86342 27.8914 1.86342 27.7848C1.86342 27.715 1.95382 27.1447 2.06424 26.5174ZM6.71056 16.4207C6.87963 13.8116 7.4545 11.6275 8.54105 9.46609C10.0214 6.52099 12.3953 3.94297 15.2853 2.14173L15.8528 1.78794L16.7371 2.37579C17.9641 3.1916 18.8062 3.87923 19.8109 4.88593C21.2848 6.36279 22.2734 7.74259 23.174 9.5798C24.4105 12.1021 24.969 14.5014 24.9671 17.2827C24.9661 18.8143 24.8761 19.5308 24.4909 21.0756C23.6186 24.5741 21.2709 29.7253 19.6663 31.6618C19.2969 32.1076 19.1858 32.4213 19.2955 32.7082C19.383 32.9367 19.5512 33.075 20.1237 33.3891C21.1034 33.9265 21.8434 34.6778 22.3984 35.6986C22.747 36.3399 23.0872 37.2912 23.2064 37.9587L23.2748 38.341L22.6029 38.2894C20.054 38.0934 17.8442 37.1201 16.7303 35.7027C16.5061 35.4174 16.2392 35.146 16.1372 35.0995C15.8207 34.9553 15.4195 35.085 15.178 35.4096C14.2897 36.6034 12.909 37.4782 11.2086 37.9245C10.4851 38.1145 9.20381 38.3192 8.7389 38.3192H8.41866L8.47348 37.9868C8.56998 37.4021 8.90844 36.4211 9.22461 35.8098C9.80128 34.6949 10.6006 33.889 11.7024 33.3114C12.5609 32.8613 12.6258 32.414 11.953 31.5824C10.6469 29.9679 8.7012 25.9631 7.66533 22.7569C7.12206 21.0753 6.82067 19.7135 6.71909 18.4817C6.68421 18.0588 6.65144 17.6777 6.64636 17.6347C6.64119 17.5916 6.67013 17.0454 6.71056 16.4207ZM8.50969 18.0067C8.70738 18.258 9.8274 18.836 10.7394 19.1573C12.3898 19.7387 13.9076 19.9818 15.8617 19.9777C17.745 19.9737 18.925 19.7962 20.5929 19.2661C21.3594 19.0225 21.6486 18.7596 21.6486 18.3064C21.6486 18.0775 21.5912 17.9417 21.4147 17.7527C21.2023 17.5252 21.1463 17.5052 20.8086 17.5351C20.6039 17.5532 20.1198 17.6639 19.7327 17.781C18.5253 18.1464 17.3014 18.3178 15.9008 18.3177C13.6732 18.3174 11.7974 17.9159 10.1394 17.0847C9.27662 16.6521 8.92213 16.6246 8.58281 16.9639C8.30136 17.2454 8.26937 17.7012 8.50969 18.0067ZM8.53917 14.6753C8.78441 14.9667 9.54743 15.3731 10.5439 15.743C14.2755 17.1282 18.889 16.9344 22.2352 15.2519C22.9741 14.8804 23.1156 14.7781 23.2385 14.5266C23.3587 14.2806 23.3671 14.1901 23.2914 13.9609C23.1763 13.612 22.8716 13.3726 22.5427 13.3726C22.3941 13.3726 21.9926 13.5189 21.5953 13.7178C19.6181 14.7074 17.1343 15.1525 14.7352 14.9472C12.9397 14.7936 11.6242 14.4502 10.1365 13.7471C9.43568 13.4158 9.25128 13.3589 9.00721 13.3985C8.61643 13.4618 8.42335 13.6739 8.37635 14.0908C8.34374 14.3801 8.36994 14.4741 8.53917 14.6753ZM11.7119 10.3743C12.0299 11.6716 13.6696 12.0926 14.5611 11.1057C15.5772 9.98106 14.6917 8.25724 13.163 8.38401C12.1997 8.46393 11.4843 9.44529 11.7119 10.3743ZM25.948 21.9983C26.116 21.3874 26.3125 20.5661 26.3847 20.1729L26.516 19.4583L26.6671 19.6804C27.1198 20.3459 27.615 21.5434 27.9017 22.6666C28.0585 23.2806 28.3306 24.9382 28.2824 24.9858C28.2316 25.0361 26.8385 24.8567 26.3799 24.7408C26.1218 24.6755 25.7633 24.5366 25.5832 24.432L25.2556 24.2418L25.4491 23.6753C25.5556 23.3638 25.7801 22.6091 25.948 21.9983Z" stroke="#246FFF" stroke-width="79.9912" mask="url(#path-1-inside-1_3_15)"/>
</svg>
